PathFileType	4	(X/Y/Z)	Patient4_TMGait_0pt8_01_left_02.trc.trc
DataRate	CameraRate	NumFrames	NumMarkers	Units	OrigDataRate	OrigDataStartFrame	OrigNumFrames
86.419753086420	86.419753086420	4	33	mm	86.419753086420	89	       141
Frame#	Time	Sacral			L.Shoulder			Chest			R.Shoulder			Neck			R.ASIS			L.ASIS			R.Thigh.Superior			R.Thigh.Lateral			R.Thigh.Inferior			R.Patella			L.Thigh.Superior			L.Thigh.Lateral			L.Thigh.Inferior			L.Patella			L.Shank.Superior			L.Shank.Lateral			L.Shank.Inferior			R.Shank.Superior			R.Shank.Lateral			R.Shank.Inferior			R.Heel			R.Midfoot.Superior			R.Midfoot.Lateral			R.Toe			L.Heel			L.Midfoot.Lateral			L.Midfoot.Superior			L.Toe			L.Elbow			L.Wrist			R.Elbow			R.Wrist			
		X1	Y1	Z1	X2	Y2	Z2	X3	Y3	Z3	X4	Y4	Z4	X5	Y5	Z5	X6	Y6	Z6	X7	Y7	Z7	X8	Y8	Z8	X9	Y9	Z9	X10	Y10	Z10	X11	Y11	Z11	X12	Y12	Z12	X13	Y13	Z13	X14	Y14	Z14	X15	Y15	Z15	X16	Y16	Z16	X17	Y17	Z17	X18	Y18	Z18	X19	Y19	Z19	X20	Y20	Z20	X21	Y21	Z21	X22	Y22	Z22	X23	Y23	Z23	X24	Y24	Z24	X25	Y25	Z25	X26	Y26	Z26	X27	Y27	Z27	X28	Y28	Z28	X29	Y29	Z29	X30	Y30	Z30	X31	Y31	Z31	X32	Y32	Z32	X33	Y33	Z33	

89	2.308285714286	775.429643424439	997.803984622479	475.120904702861	984.248959643263	1418.423329881257	301.498277534964	1067.289575298519	1347.996781040812	473.746277357463	967.990266819290	1428.939134421503	636.051241888266	968.452135214787	1483.393007342821	454.350180975253	999.361748300045	931.435045349354	602.506876807015	995.725151763376	953.441596820358	327.530476124359	1068.391096605809	750.824764459546	582.829638580588	998.322152576872	632.295146190276	636.944752091761	1092.829931954178	591.866621590560	567.882889920703	1107.275630071896	502.014509378146	576.951279059112	1019.894943978558	730.930371791711	345.949438491473	922.547293325596	622.085287248109	278.980620183433	1003.485778235240	531.051804079972	334.696731914778	989.447222618979	446.618007088650	330.908924094339	917.736341072060	393.035146180026	326.823703731038	774.859484620777	355.701739233119	279.713266456632	757.667067183117	228.819101712990	338.721639934440	1081.982359264289	410.173682810746	580.832477478767	1009.958761337545	302.021159098477	634.775959539890	1065.342501907669	210.226961586075	577.349058107003	943.696148626284	42.077407327500	534.774382076144	1112.707958582127	100.149953167396	582.731722792509	1022.935959068276	36.770791136472	614.806526093497	1230.746456826830	49.142974822978	614.137926985882	565.402483839098	164.779012478799	381.348198613951	621.684957717318	118.560595157668	300.907982994152	726.972216922092	131.750473308493	319.712391236734	807.206111902789	32.710848880339	292.465512864921	983.490325694988	1076.391977837830	166.090824157500	1185.979646748143	911.564988413010	174.144519233545	842.430116862236	1102.693007830077	744.545725877389	848.189045816602	842.928246325467	769.787168797134	
90	2.319857142857	774.667404738909	999.653780602494	477.827011520918	982.777936913442	1420.755049114873	304.913183902908	1067.288559859835	1349.276919050347	476.074430649953	969.673451636123	1429.451377605304	639.708324125089	968.511595778578	1484.880230652433	458.310322486478	999.141721683235	933.285866023677	604.081393411972	994.304084053343	954.489816892236	329.112374741674	1065.211800539367	749.772722664089	585.994735299616	992.848299931933	632.643226672991	638.658906385636	1086.906330859968	591.072641991967	569.608619300370	1099.918832954250	501.297533165778	578.234838013518	1024.192552676439	734.257683643720	347.844269218947	931.219190782132	622.783442233120	280.137949982442	1014.973006777325	533.653679485215	335.925697736432	1002.187289007800	448.014705434087	331.763802653985	928.727265775640	394.539427082438	327.860222734303	784.501922645021	362.017151067366	281.029966043971	763.155129106073	235.796896112615	339.965067977155	1074.009639883119	409.851027983136	582.176868947458	1001.278862461121	302.004467643887	635.689351265198	1056.443088257372	210.076500701022	578.190254947692	934.440079940146	42.016158231117	535.039829008387	1103.468152550077	100.118778686541	583.081710109463	1013.682747281840	36.715641878163	615.065953002543	1221.477203860242	49.175804365365	614.306268176488	568.671405623330	179.901919670983	382.801782284523	622.836913621558	131.108945651559	302.215985271614	728.933048043029	139.209811807433	320.886985401703	804.115242240032	33.920026296915	293.349452491483	976.106788131739	1077.383137110719	171.917537629948	1169.343793314510	900.857105934459	179.064447602875	852.969546784063	1098.825974249587	748.041005886062	870.363462193651	839.241049466402	770.797277398660	
91	2.331428571429	773.735235933739	1001.455431551302	480.263839141298	981.129883599608	1422.942396820199	308.157408340093	1067.149682918643	1350.398859382604	478.179778723607	971.334613802985	1429.813053522654	643.228681057722	968.498711581827	1486.256852613443	462.124578747009	998.673813702877	935.030219708364	605.494165917207	992.701407363300	955.305369820389	330.547205577584	1061.625198294978	748.783444159135	588.748110427768	987.207440043544	633.028689432338	640.303580460337	1080.688528186597	590.302076271452	571.182242667998	1092.231114657879	500.622641506666	579.510518891649	1028.246164242688	737.858510880075	349.539640205094	939.653795911637	623.978628018341	281.078593622342	1026.095305887807	536.854389816437	336.948404495270	1014.753056067116	450.093515477735	332.474452968928	939.870451146716	396.549255404467	328.762937648871	794.530382817490	368.218580509713	282.340529913143	769.654848388185	242.660529851102	341.279941538134	1065.818187331872	409.570115278249	583.457559123913	992.456023348840	302.003749947316	636.556943272387	1047.450976679102	209.961925126898	578.994196490391	925.141336325548	41.983989940804	535.287659010168	1094.217294086550	100.040201204995	583.393485340855	1004.391840048908	36.652207333521	615.293946826695	1212.191352307616	49.105362583222	614.446336476814	573.509210141614	193.738100032336	384.476213805765	625.801377067458	142.893085957948	303.740003838363	732.415996834371	146.685295077002	322.290710179972	803.241728534620	35.900079298019	294.433364056236	968.398377566490	1078.358917882017	177.562942179034	1151.721283262964	890.750017082088	183.852438852112	863.953002037318	1095.058819181168	751.494604752826	893.210096292268	836.212620358351	771.748186088896	
92	2.343000000000	772.676718788147	1003.187260252024	482.443519527370	979.370101749461	1424.980919533906	311.208293304000	1066.883057349486	1351.367540721153	480.067813406118	972.932935970756	1430.046339999161	646.572449652038	968.430240977358	1487.528416675483	465.751576812828	997.969888479975	936.664217729386	606.802126419699	990.969830517741	955.918333046618	331.887063450193	1057.732804168957	747.931285368436	591.057700302336	981.493729326904	633.464561959227	641.879986391889	1074.284843909039	589.573759370506	572.619840189348	1084.323786978239	500.003560218757	580.769011611924	1031.996266144504	741.724389761534	351.078880577882	947.733506735836	625.674843662711	281.818267080493	1036.733014311501	540.637528285246	337.741397262930	1027.027750220726	452.852189132742	332.970133110535	951.073524729572	399.044542503818	329.492649496159	804.838972862354	374.121994962662	283.602072687385	777.196408861705	249.163502313873	342.610810605127	1057.512383128157	409.336899632288	584.667909636705	983.567040010941	302.040995510454	637.381607726151	1038.414268773456	209.885775140970	579.756537272781	915.806471556101	41.982418989991	535.526687487264	1084.957821852210	99.940720468448	583.679595516048	995.068871587922	36.589442278729	615.498570890015	1202.889073645388	48.963827918876	614.575359684759	579.907512138839	205.773626345593	386.311075031441	630.647047126624	153.412236757552	305.421796411001	737.546411323753	153.830518859383	323.836380783898	804.886864959482	38.582014571139	295.654788925257	960.348497979198	1079.335412429859	183.016110618916	1133.152616715625	881.354595534913	188.462044370036	875.385314308462	1091.440918717691	754.851701247947	916.635469099354	833.924685697136	772.604951823751	
